<?xml version="1.0" standalone="no"?>
<!DOCTYPE svg PUBLIC "-//W3C//DTD SVG 20010904//EN"
 "http://www.w3.org/TR/2001/REC-SVG-20010904/DTD/svg10.dtd">
<svg version="1.0" xmlns="http://www.w3.org/2000/svg"
 width="626.000000pt" height="626.000000pt" viewBox="0 0 626.000000 626.000000"
 preserveAspectRatio="xMidYMid meet">

<g transform="translate(0.000000,626.000000) scale(0.100000,-0.100000)"
fill="#000000" stroke="none">
<path d="M2635 5656 c-183 -45 -324 -219 -344 -420 l-6 -60 -71 -12 c-88 -14
-143 -39 -216 -95 -71 -54 -129 -130 -159 -207 -27 -71 -36 -191 -19 -264 17
-70 69 -172 116 -227 48 -56 161 -130 238 -156 l58 -20 -6 -45 c-3 -25 -13
-101 -23 -170 -22 -158 -25 -730 -5 -822 28 -122 116 -186 243 -175 97 8 197
45 449 167 124 60 272 125 330 145 74 25 92 34 60 30 -88 -13 -207 -47 -315
-92 -206 -85 -230 -94 -310 -113 -110 -27 -183 -26 -226 3 -61 41 -73 91 -40
178 89 234 445 410 912 451 214 18 436 -12 597 -82 65 -28 116 -82 106 -113
-15 -50 -82 -92 -193 -123 -89 -25 -68 -28 36 -5 155 34 223 78 223 146 0 65
-82 142 -195 184 -175 66 -517 97 -763 70 -312 -34 -572 -129 -723 -266 l-37
-34 -11 53 c-27 122 -43 314 -37 433 21 440 229 664 669 724 230 32 477 -3
672 -93 65 -30 74 -38 80 -67 11 -50 61 -201 86 -259 l21 -50 72 0 c224 1 398
117 465 311 59 173 24 336 -98 458 -64 63 -133 104 -211 124 l-54 14 -13 69
c-48 245 -239 393 -469 364 -130 -17 -243 -67 -322 -143 l-32 -31 -17 24
c-104 155 -333 242 -518 196z m278 -95 c108 -38 205 -126 254 -231 l25 -55 55
52 c114 110 240 166 373 167 73 0 92 -4 136 -26 65 -34 108 -84 152 -175 29
-62 35 -88 40 -162 l5 -89 56 -11 c121 -24 220 -93 269 -185 24 -45 27 -61 26
-146 -1 -108 -14 -148 -71 -211 -45 -50 -115 -86 -202 -105 -71 -15 -159 -18
-177 -6 -16 10 -47 75 -73 150 -31 91 -32 90 47 79 124 -17 240 24 276 97 17
35 18 42 5 65 -23 42 -74 40 -135 -4 -88 -63 -130 -79 -219 -78 -139 0 -213
52 -223 154 -8 81 18 131 119 229 48 47 93 98 98 113 19 50 13 86 -19 119 -26
25 -36 29 -63 24 -36 -7 -81 -47 -96 -85 -6 -14 -17 -65 -24 -112 -17 -100
-57 -188 -104 -230 -97 -85 -252 -119 -381 -85 -197 53 -266 174 -203 358 32
93 26 160 -18 200 -42 38 -75 36 -117 -6 -47 -47 -47 -100 0 -190 45 -86 57
-125 58 -184 1 -143 -155 -298 -368 -367 -41 -13 -59 -14 -92 -6 -51 14 -102
70 -102 112 0 70 -57 132 -100 109 -53 -29 -67 -112 -27 -171 32 -47 77 -75
157 -96 39 -9 70 -22 70 -28 0 -5 -11 -46 -24 -90 l-24 -80 -38 1 c-109 3
-231 89 -279 196 -65 144 -17 359 102 457 67 55 133 75 255 75 l108 1 0 56 c0
170 123 350 277 405 55 19 151 17 216 -5z"/>
<path d="M3139 4135 c-48 -8 -102 -19 -120 -24 l-34 -11 40 5 c22 2 126 7 230
11 152 5 213 3 304 -10 126 -19 272 -62 339 -101 l44 -25 -32 58 c-18 31 -34
58 -35 60 -1 2 -45 12 -96 23 -125 27 -509 36 -640 14z"/>
<path d="M2958 4093 c7 -3 16 -2 19 1 4 3 -2 6 -13 5 -11 0 -14 -3 -6 -6z"/>
<path d="M4619 3615 l-604 -405 3 -43 c5 -58 56 -211 91 -275 l30 -53 -99 -65
c-95 -64 -99 -66 -122 -50 -27 19 -67 21 -69 4 -1 -7 -1 -29 0 -48 l1 -35
-421 -285 c-232 -157 -433 -293 -448 -302 l-27 -17 -349 227 -350 227 -3 43
c-4 51 -18 60 -61 37 -18 -9 -37 -13 -44 -9 -7 4 -58 36 -115 72 -79 50 -101
69 -96 81 105 248 74 426 -106 615 -160 168 -370 273 -622 310 -315 47 -545
-20 -587 -171 -69 -248 170 -729 458 -923 227 -152 502 -157 702 -11 38 28 72
51 75 51 3 0 50 -36 105 -81 l100 -81 -7 -44 c-5 -36 -3 -45 12 -51 10 -4 30
1 47 10 16 10 34 14 41 10 28 -17 576 -457 576 -462 0 -3 -251 -175 -556 -381
-305 -206 -569 -386 -585 -400 -26 -22 -30 -34 -36 -92 -8 -88 10 -150 56
-198 46 -47 136 -82 202 -78 46 3 56 10 595 463 301 253 555 466 565 473 17
11 91 -45 701 -529 376 -298 703 -558 726 -578 l44 -35 65 11 c135 24 206 99
207 222 2 137 53 92 -552 486 -295 192 -627 408 -737 479 -110 71 -204 132
-209 137 -6 5 3 18 20 31 15 13 185 155 377 316 l348 292 30 -16 c47 -24 63
-12 57 41 l-5 44 76 64 c42 34 81 66 88 70 7 5 42 -17 88 -56 42 -35 112 -83
156 -106 69 -37 82 -41 97 -29 17 13 1008 858 1066 909 l30 26 -30 41 -30 41
-75 -57 c-41 -32 -231 -176 -424 -322 -192 -145 -378 -285 -412 -312 l-62 -48
-21 28 -22 27 39 32 c21 18 232 189 470 380 237 191 432 353 432 358 0 6 -10
22 -22 36 l-22 27 -489 -363 -489 -362 -24 27 c-13 15 -23 32 -23 37 0 6 216
176 479 378 390 300 478 371 471 384 -6 9 -16 25 -25 35 -17 22 44 63 -579
-381 -234 -167 -426 -303 -428 -303 -3 0 -14 13 -26 29 l-22 30 343 267 c188
147 404 315 479 373 75 58 137 109 137 112 1 3 -10 19 -22 37 l-24 32 -604
-405z m-147 -207 c-6 -7 -67 -58 -136 -113 -69 -55 -125 -102 -125 -105 0 -3
85 -119 190 -259 l191 -255 -33 -28 c-19 -15 -41 -28 -50 -28 -30 0 -163 95
-218 156 -29 32 -72 92 -96 132 -42 71 -101 229 -94 251 3 9 367 260 378 261
2 0 -1 -6 -7 -12z m-3292 -364 l470 -336 50 32 c92 59 163 160 195 277 l13 48
1 -75 c3 -293 -192 -479 -477 -457 -162 13 -308 84 -436 213 -69 70 -153 194
-194 284 -54 122 -121 350 -102 350 5 0 221 -151 480 -336z m2180 -848 c-38
-38 -287 -226 -298 -226 -30 0 1 28 148 131 153 107 178 123 150 95z m-505
-272 c181 -128 1215 -852 1417 -993 92 -64 167 -121 168 -128 0 -20 -51 -53
-84 -53 -25 0 -85 42 -321 228 -159 125 -519 407 -800 626 -602 470 -654 514
-380 320z m-7 -126 c-2 -4 -230 -185 -508 -402 -500 -391 -505 -395 -523 -375
-22 27 -22 81 1 108 9 11 237 173 507 360 412 284 493 336 507 327 10 -6 17
-14 16 -18z"/>
</g>
</svg>
