<?xml version="1.0" standalone="no"?>
<!DOCTYPE svg PUBLIC "-//W3C//DTD SVG 20010904//EN"
 "http://www.w3.org/TR/2001/REC-SVG-20010904/DTD/svg10.dtd">
<svg version="1.0" xmlns="http://www.w3.org/2000/svg"
 width="1952.000000pt" height="2208.000000pt" viewBox="0 0 1952.000000 2208.000000"
 preserveAspectRatio="xMidYMid meet">

<g transform="translate(0.000000,2208.000000) scale(0.100000,-0.100000)"
fill="#000000" stroke="none">
<path d="M5554 18921 c-131 -60 -332 -457 -487 -961 -39 -127 -47 -161 -77
-330 -52 -285 -72 -603 -51 -800 6 -58 16 -150 21 -205 18 -171 50 -342 100
-535 59 -226 87 -321 106 -357 7 -16 14 -34 14 -40 0 -41 194 -470 277 -613
11 -19 37 -63 56 -97 20 -35 48 -79 64 -100 l28 -37 -40 23 c-22 13 -60 35
-84 49 -81 45 -256 154 -290 179 -18 15 -52 36 -75 47 -65 34 -253 143 -341
197 -269 168 -741 355 -1035 410 -112 22 -151 24 -385 23 -239 -1 -271 -3
-393 -27 -140 -28 -369 -96 -513 -153 -48 -19 -94 -34 -103 -34 -9 0 -16 -4
-16 -9 0 -4 -21 -16 -48 -26 -26 -10 -85 -38 -131 -62 -65 -34 -86 -41 -92
-31 -7 10 -9 10 -9 -2 0 -17 6 -13 -175 -123 -263 -160 -438 -286 -598 -430
-55 -50 -103 -85 -109 -81 -6 4 -8 3 -5 -3 3 -5 -19 -34 -50 -64 -133 -130
-238 -284 -284 -415 -31 -92 -33 -107 -32 -214 1 -110 38 -323 61 -354 5 -6
17 -33 27 -61 73 -204 232 -476 414 -710 47 -60 102 -131 122 -157 159 -212
616 -618 804 -714 22 -11 90 -48 150 -82 118 -65 214 -105 415 -170 287 -93
560 -124 905 -102 364 23 677 97 1082 256 117 46 215 84 217 84 3 0 53 23 112
50 59 28 109 48 112 46 3 -3 -2 -36 -11 -73 -9 -38 -23 -108 -32 -158 -19
-102 -89 -464 -105 -540 -16 -78 -67 -428 -80 -550 -6 -60 -22 -200 -36 -310
-55 -451 -77 -1245 -50 -1770 16 -316 28 -457 72 -830 34 -298 54 -445 64
-485 5 -19 21 -105 35 -190 15 -85 33 -177 41 -204 20 -71 18 -88 -19 -143
-57 -84 -224 -433 -266 -554 -22 -63 -52 -160 -66 -215 -13 -54 -31 -124 -39
-154 -62 -245 -57 -759 10 -1005 63 -234 167 -527 215 -605 5 -8 23 -42 40
-74 51 -97 204 -330 297 -451 166 -217 421 -465 672 -656 140 -106 355 -254
438 -301 218 -123 418 -225 611 -310 235 -104 639 -245 866 -303 116 -30 233
-61 260 -69 126 -38 519 -111 780 -145 420 -56 891 -91 1210 -91 210 0 708 36
985 71 85 11 191 25 235 30 190 23 480 80 735 145 291 75 299 77 510 151 102
36 216 74 254 85 37 10 113 39 167 63 55 25 145 66 202 91 113 51 433 214 542
277 116 67 415 267 493 329 39 32 107 86 150 120 98 79 288 269 421 421 126
144 314 420 407 597 58 112 153 366 188 509 114 450 114 830 0 1286 -45 179
-137 408 -236 588 -39 71 -71 134 -71 141 1 6 13 61 27 121 75 314 142 739
196 1235 5 47 21 265 35 485 33 501 30 753 -15 1485 -13 200 -60 631 -89 810
-5 30 -16 107 -25 170 -19 130 -72 437 -86 490 -5 19 -13 60 -19 90 -6 30 -23
107 -37 170 -34 157 -38 180 -28 180 11 0 133 -48 329 -130 137 -57 266 -100
495 -164 239 -68 451 -97 695 -99 407 -2 692 57 1035 211 70 31 287 156 385
221 116 77 311 236 406 332 89 90 296 320 340 377 70 91 204 285 230 331 14
25 46 82 71 126 113 202 219 445 239 550 8 40 13 128 13 205 -1 120 -4 142
-27 201 -35 91 -76 173 -121 242 -48 75 -212 246 -346 360 -58 49 -106 94
-108 98 -2 5 -8 9 -13 9 -5 0 -47 30 -93 68 -46 37 -126 93 -177 126 -52 32
-116 73 -144 91 -258 170 -470 271 -764 366 -254 82 -434 112 -686 112 -141 0
-358 -24 -465 -53 -19 -5 -62 -15 -95 -24 -206 -51 -543 -189 -755 -308 -166
-93 -358 -206 -380 -223 -8 -7 -49 -30 -90 -53 -41 -22 -97 -52 -123 -67 -26
-15 -50 -25 -53 -23 -2 3 23 56 56 119 71 132 144 283 155 319 4 14 13 32 20
40 12 14 77 183 141 365 24 67 98 352 109 419 3 17 14 78 25 136 45 251 63
637 39 876 -16 168 -67 467 -100 589 -65 236 -84 293 -155 467 -84 207 -211
450 -269 516 -48 55 -87 72 -164 72 -50 0 -66 -5 -106 -33 -70 -48 -108 -129
-157 -335 -22 -92 -55 -212 -73 -267 -32 -94 -47 -136 -140 -380 -95 -251
-215 -481 -391 -750 -102 -157 -155 -225 -276 -357 -127 -138 -177 -189 -243
-243 -55 -46 -143 -123 -155 -135 -82 -87 -593 -388 -749 -441 -30 -11 -64
-25 -75 -33 -12 -7 -59 -25 -106 -40 -47 -15 -112 -36 -145 -46 -39 -13 -87
-20 -135 -20 -93 0 -204 16 -208 29 -2 5 -9 8 -17 5 -7 -3 -55 2 -106 10 -98
16 -265 36 -509 61 -197 20 -784 45 -1060 45 -265 0 -595 -14 -840 -35 -248
-22 -505 -53 -570 -70 -114 -29 -283 -57 -319 -52 -110 14 -266 72 -506 187
-256 123 -453 242 -605 367 -36 30 -96 79 -135 110 -89 72 -254 239 -306 309
-22 30 -44 54 -49 54 -23 0 -232 296 -364 517 -68 114 -195 387 -275 594 -93
239 -123 335 -190 600 -52 209 -64 239 -112 294 -50 56 -163 73 -245 36z m120
-436 c45 -185 168 -551 249 -745 190 -450 452 -867 727 -1155 80 -84 235 -231
299 -285 30 -25 71 -59 90 -76 154 -132 662 -426 804 -465 20 -5 37 -14 37
-19 0 -4 -21 -16 -47 -25 -27 -9 -61 -23 -78 -30 -16 -8 -85 -37 -152 -64 -66
-28 -148 -64 -181 -81 -33 -16 -62 -30 -64 -30 -11 0 -203 -114 -282 -168
-276 -188 -600 -499 -805 -774 -24 -32 -47 -58 -51 -58 -22 0 -241 267 -402
490 -217 302 -414 745 -523 1178 -124 495 -137 1045 -34 1502 67 300 124 479
222 695 93 206 138 290 147 274 4 -8 24 -81 44 -164z m9105 101 c12 -32 56
-136 98 -230 155 -349 241 -670 272 -1016 14 -148 14 -580 1 -580 -5 0 -7 -13
-4 -30 10 -49 -27 -314 -67 -490 -49 -210 -190 -604 -284 -791 -142 -282 -292
-515 -440 -679 -66 -74 -214 -213 -267 -251 l-27 -19 -88 111 c-190 241 -320
377 -523 543 -69 57 -161 126 -205 154 -44 28 -93 60 -110 71 -163 108 -470
253 -677 320 -21 7 -38 16 -38 19 0 4 26 18 58 31 100 43 448 227 539 287 229
149 292 192 387 267 55 44 139 114 185 156 72 65 119 114 272 287 46 52 147
192 234 324 239 360 383 711 620 1504 14 49 30 85 34 80 5 -5 18 -35 30 -68z
m-3929 -2845 c424 -34 635 -63 990 -136 471 -97 895 -263 1213 -477 259 -173
420 -323 684 -634 58 -69 184 -247 265 -376 264 -419 464 -881 669 -1543 44
-141 99 -338 99 -356 0 -4 -21 -12 -47 -18 -96 -24 -310 -104 -393 -148 -366
-192 -576 -445 -741 -888 -153 -412 -193 -1111 -89 -1555 62 -264 162 -472
321 -663 255 -309 599 -491 1114 -587 165 -31 149 -17 141 -123 -4 -50 -14
-141 -22 -202 -8 -60 -24 -173 -34 -250 -32 -241 -101 -598 -120 -618 -4 -4
-15 5 -25 20 -43 65 -250 295 -346 383 -330 303 -557 462 -979 686 -280 149
-513 249 -885 382 -239 86 -764 221 -1015 262 -653 107 -817 125 -1273 139
-280 9 -758 -1 -982 -19 -1012 -83 -1936 -335 -2720 -740 -501 -258 -880 -539
-1188 -877 -71 -79 -135 -143 -141 -143 -32 0 -118 568 -155 1025 -6 72 -16
186 -21 254 -29 349 -36 1088 -13 1344 l6 67 43 0 c24 0 90 9 147 20 459 89
849 390 1063 819 196 395 296 974 253 1466 -12 141 -50 352 -79 449 -26 84
-118 287 -172 380 -76 130 -236 277 -396 362 -87 47 -88 34 5 224 143 292 343
618 503 820 103 131 393 422 520 522 380 299 865 498 1505 617 347 65 723 109
1105 131 257 14 900 4 1190 -19z m-7241 -226 c125 -21 410 -92 438 -111 12 -8
29 -14 38 -14 50 0 617 -289 842 -429 22 -14 54 -33 70 -42 47 -28 305 -192
348 -222 22 -16 109 -72 192 -125 84 -53 232 -150 328 -215 214 -144 207 -111
73 -332 -52 -86 -139 -257 -172 -337 -8 -21 -19 -38 -24 -38 -5 0 -81 46 -169
103 -88 56 -179 113 -201 127 -23 14 -96 60 -162 103 -66 42 -123 77 -127 77
-3 0 -29 15 -57 34 -68 44 -509 266 -530 266 -3 0 -42 18 -88 39 -147 69 -524
189 -758 240 -343 76 -819 103 -1146 66 -301 -34 -457 -68 -739 -157 -215 -68
-330 -115 -515 -206 -85 -42 -158 -78 -162 -80 -15 -7 -8 20 17 71 52 103 273
316 515 495 194 145 213 158 275 198 33 22 62 42 65 45 3 4 50 32 105 64 562
324 1089 454 1544 380z m13436 -1 c110 -16 370 -77 425 -98 19 -8 60 -24 90
-36 271 -108 595 -288 785 -436 11 -8 65 -49 120 -90 136 -103 340 -284 420
-374 59 -67 125 -167 125 -191 0 -17 -9 -14 -200 81 -225 111 -626 242 -885
289 -260 48 -452 63 -740 58 -177 -3 -304 -11 -370 -21 -55 -9 -143 -23 -195
-32 -215 -35 -586 -150 -860 -266 -305 -129 -672 -326 -1044 -560 -104 -66
-193 -120 -198 -121 -4 -1 -44 67 -88 151 -74 141 -176 325 -210 379 -8 12
-12 24 -10 26 3 2 77 51 165 110 88 60 215 145 282 190 104 70 171 114 403
262 141 91 269 169 348 213 226 127 272 152 347 190 233 116 430 194 585 231
301 72 458 82 705 45z m-13960 -984 c250 -21 490 -60 682 -111 123 -32 408
-124 436 -139 9 -6 45 -21 80 -34 298 -113 757 -367 1202 -666 12 -8 54 -35
94 -59 39 -24 71 -48 71 -54 0 -6 -49 -148 -109 -316 -60 -168 -128 -367 -152
-441 -23 -74 -52 -146 -63 -159 -31 -34 -354 -189 -611 -293 -626 -253 -1142
-323 -1635 -222 -456 94 -857 325 -1270 734 -130 129 -354 405 -426 524 -16
27 -46 77 -66 110 -113 183 -273 554 -266 615 3 22 17 33 93 71 291 145 614
263 960 351 309 78 693 113 980 89z m14410 -5 c170 -15 299 -33 460 -66 174
-35 277 -67 650 -202 92 -33 390 -179 430 -211 l29 -24 -26 -73 c-70 -200
-113 -296 -201 -454 -315 -562 -808 -1055 -1292 -1291 -200 -97 -362 -150
-585 -191 -129 -24 -480 -23 -632 0 -333 53 -638 149 -1063 335 -311 136 -292
126 -309 179 -8 27 -51 154 -96 283 -45 129 -85 246 -90 260 -5 14 -34 95 -65
180 -88 240 -97 269 -92 285 10 23 199 144 537 342 163 96 589 313 614 313 6
0 16 4 21 9 12 12 197 87 330 134 321 113 599 171 935 196 166 13 273 12 445
-4z m-7143 -5735 c523 -22 910 -69 1448 -176 594 -118 1285 -374 1750 -647 47
-27 117 -68 155 -90 156 -91 392 -260 531 -381 121 -105 368 -358 452 -463
199 -251 361 -539 439 -783 160 -503 156 -1003 -12 -1490 -86 -250 -197 -446
-420 -737 -70 -92 -352 -378 -445 -452 -336 -268 -533 -392 -925 -586 -358
-177 -539 -252 -875 -360 -640 -207 -1169 -305 -1890 -351 -376 -23 -949 -10
-1325 31 -505 56 -1040 170 -1587 339 -405 125 -1001 406 -1313 619 -214 146
-389 291 -571 472 -191 191 -375 419 -478 595 -76 128 -201 407 -249 555 -169
521 -127 1092 118 1601 40 83 88 178 107 210 88 149 143 233 187 284 25 30 67
82 91 115 61 81 323 340 440 435 141 114 317 243 412 301 440 273 864 463
1403 631 245 76 314 95 520 137 536 111 887 161 1280 181 121 6 243 12 270 13
118 7 250 6 487 -3z"/>
<path d="M7675 11420 c-247 -39 -456 -273 -541 -606 -38 -150 -47 -252 -41
-444 11 -355 106 -614 291 -790 120 -115 228 -160 383 -160 157 0 273 48 384
159 161 162 266 415 300 720 29 261 -49 602 -187 819 -60 93 -187 212 -274
255 -109 54 -192 66 -315 47z m-10 -131 c54 -15 127 -93 156 -167 31 -80 32
-208 3 -273 -28 -59 -90 -128 -131 -146 -78 -32 -194 -6 -246 57 -61 72 -72
106 -72 225 0 110 0 110 41 185 35 65 47 78 93 102 57 30 93 34 156 17z"/>
<path d="M12345 11418 c-27 -5 -87 -27 -131 -48 -204 -98 -364 -357 -415 -668
-26 -159 -28 -417 -4 -547 60 -338 213 -588 422 -690 180 -88 403 -59 571 74
206 164 362 541 362 876 0 302 -135 672 -308 843 -137 137 -316 194 -497 160z
m72 -163 c23 -19 52 -58 73 -99 32 -64 34 -77 35 -160 0 -83 -3 -97 -33 -158
-40 -82 -90 -125 -164 -140 -99 -20 -182 24 -236 126 -25 47 -27 60 -27 171 0
136 12 170 82 236 58 55 71 60 155 57 68 -3 81 -6 115 -33z"/>
<path d="M7550 7099 c-94 -38 -185 -149 -215 -265 -22 -85 -20 -269 4 -369 63
-261 211 -517 388 -669 154 -134 252 -178 398 -180 167 -2 283 61 344 187 88
183 78 391 -31 667 -46 115 -57 138 -126 245 -107 166 -294 332 -427 380 -33
11 -89 19 -165 21 -100 4 -122 1 -170 -17z m239 -214 c102 -35 231 -157 333
-311 109 -164 169 -348 169 -516 0 -105 -17 -150 -71 -186 -30 -21 -44 -23
-96 -19 -154 12 -304 138 -442 373 -94 158 -145 370 -127 519 16 126 112 183
234 140z"/>
<path d="M12300 7097 c-85 -29 -174 -91 -282 -195 -139 -134 -240 -304 -315
-530 -29 -91 -36 -125 -40 -227 -7 -151 5 -218 58 -323 49 -96 79 -128 162
-173 115 -61 266 -51 403 27 184 105 345 280 451 489 81 160 125 332 126 490
0 177 -31 271 -123 367 -73 78 -130 98 -272 98 -80 0 -117 -5 -168 -23z m243
-224 c15 -7 39 -32 55 -55 24 -37 27 -52 30 -145 3 -88 0 -117 -23 -196 -54
-190 -162 -368 -309 -511 -90 -87 -167 -126 -250 -126 -52 0 -61 3 -91 33 -42
42 -59 100 -58 207 2 237 109 477 297 665 88 88 160 132 234 145 51 8 72 5
115 -17z"/>
<path d="M12079 4584 c-39 -19 -116 -63 -169 -99 -102 -67 -319 -176 -475
-240 -272 -112 -606 -200 -925 -246 -185 -27 -548 -32 -720 -11 -58 7 -141 17
-185 23 -265 33 -662 146 -905 257 -163 74 -288 137 -339 170 -164 107 -289
172 -328 172 -77 0 -125 -82 -94 -163 16 -42 372 -268 559 -354 371 -171 775
-280 1217 -328 200 -22 589 -22 790 -1 333 36 695 123 934 225 40 17 77 31 82
31 5 0 62 24 127 54 207 94 508 280 573 354 24 26 29 42 29 81 0 57 -20 87
-67 100 -27 8 -43 4 -104 -25z"/>
</g>
</svg>
